HIERARCHY
ROOT Root
{
	OFFSET 0.00 0.00 0.00
	CHANNELS 6 Xposition Yposition Zposition Xrotation Yrotation Zrotation
	JOINT L_Femur
	{
		OFFSET 2.78527 0.00000 0.00000
		CHANNELS 3 Xrotation Yrotation Zrotation
		JOINT L_Tibia
		{
			OFFSET 0.00000 -16.41095 0.00000
			CHANNELS 3 Xrotation Yrotation Zrotation
			JOINT L_Foot
			{
				OFFSET 0.00000 -14.21163 0.00000
				CHANNELS 3 Xrotation Yrotation Zrotation
				JOINT L_Toe
				{
					OFFSET 0.00000 -1.60827 6.00215
					CHANNELS 3 Xrotation Yrotation Zrotation
					End Site
					{
						OFFSET 0.00000 0.00000 2.95275
					}
				}
			}
		}
	}
	JOINT R_Femur
	{
		OFFSET -2.78527 0.00000 0.00000
		CHANNELS 3 Xrotation Yrotation Zrotation
		JOINT R_Tibia
		{
			OFFSET 0.00000 -16.41095 0.00000
			CHANNELS 3 Xrotation Yrotation Zrotation
			JOINT R_Foot
			{
				OFFSET 0.00000 -14.21163 0.00000
				CHANNELS 3 Xrotation Yrotation Zrotation
				JOINT R_Toe
				{
					OFFSET 0.00000 -1.60827 6.00215
					CHANNELS 3 Xrotation Yrotation Zrotation
					End Site
					{
						OFFSET 0.00000 0.00000 2.95275
					}
				}
			}
		}
	}
	JOINT LowerBack
	{
		OFFSET 0.00000 0.03937 0.00000
		CHANNELS 3 Xrotation Yrotation Zrotation
		JOINT Thorax
		{
			OFFSET 0.00000 7.01329 0.00000
			CHANNELS 3 Xrotation Yrotation Zrotation
			JOINT Neck
			{
				OFFSET 0.00000 7.25825 0.00000
				CHANNELS 3 Xrotation Yrotation Zrotation
				JOINT Head
				{
					OFFSET 0.00000 5.63334 0.00000
					CHANNELS 3 Xrotation Yrotation Zrotation
					End Site
					{
						OFFSET 0.00000 4.52755 0.00000
					}
				}
			}
			JOINT L_Collar
			{
				OFFSET 0.00000 7.25825 0.00000
				CHANNELS 3 Xrotation Yrotation Zrotation
				JOINT L_Humerus
				{
					OFFSET 6.91821 -0.00003 0.00000
					CHANNELS 3 Xrotation Yrotation Zrotation
					JOINT L_Elbow
					{
						OFFSET 10.34006 -0.00004 0.00000
						CHANNELS 3 Xrotation Yrotation Zrotation
						JOINT L_Wrist
						{
							OFFSET 7.25554 -0.00003 0.00000
							CHANNELS 3 Xrotation Yrotation Zrotation
							JOINT L_Thumb
							{
								OFFSET 0.00000 0.00000 0.00000
								CHANNELS 3 Xrotation Yrotation Zrotation
								End Site
								{
									OFFSET 0.00000 0.00000 3.93700
								}
							}
							JOINT L_Wrist_End
							{
								OFFSET 3.93700 -0.00001 0.00000
								CHANNELS 3 Xrotation Yrotation Zrotation
							}
						}
					}
				}
			}
			JOINT R_Collar
			{
				OFFSET 0.00000 7.25825 0.00000
				CHANNELS 3 Xrotation Yrotation Zrotation
				JOINT R_Humerus
				{
					OFFSET -6.91821 -0.00003 0.00000
					CHANNELS 3 Xrotation Yrotation Zrotation
					JOINT R_Elbow
					{
						OFFSET -10.34006 -0.00004 0.00000
						CHANNELS 3 Xrotation Yrotation Zrotation
						JOINT R_Wrist
						{
							OFFSET -7.25554 -0.00003 0.00000
							CHANNELS 3 Xrotation Yrotation Zrotation
							JOINT R_Thumb
							{
								OFFSET 0.00000 0.00000 0.00000
								CHANNELS 3 Xrotation Yrotation Zrotation
								End Site
								{
									OFFSET 0.00000 0.00000 3.93700
								}
							}
							JOINT R_Wrist_End
							{
								OFFSET -5.39369 -0.00002 0.00000
								CHANNELS 3 Xrotation Yrotation Zrotation
							}
						}
					}
				}
			}
		}
	}
}
MOTION
Frames: 14
Frame Time: 0.033332
 -25.1537 32.8840 -0.9376 6.7466 -3.5797 -0.8444 -7.0397 32.9087 10.2015 2.2161 0.0000 0.0000 -4.7737 -10.4719 -2.5333 -7.3641 0.0000 0.0000 -4.2364 1.7918 -4.2542 4.1813 -0.0000 -0.0000 -8.3467 0.2003 5.8700 -10.1285 0.0000 -0.0000 -5.3159 -1.4554 -9.5573 2.2890 -1.3546 12.4399 0.4131 -28.0441 5.3064 -8.1886 47.3659 11.2747 -4.1549 30.5306 22.0940 -20.2733 -10.1150 -24.1636 -0.0000 -8.5998 -0.0000 -8.5830 2.6221 0.5160 -0.0000 0.0000 -0.0000 -0.0000 0.0000 -0.0000 0.0951 -10.9778 -22.6914 -48.0522 -5.6434 33.8660 -0.0000 13.0679 0.0000 6.7323 1.5393 -16.5302 -0.0000 -0.0000 0.0000 -0.0000 -0.0000 0.0000
 -25.1617 32.8820 -0.9344 6.7423 -3.4523 -0.8268 -7.0316 32.8855 10.1857 2.1862 -0.0000 -0.0000 -4.7424 -10.5699 -2.5974 -7.4111 0.0000 -0.0000 -4.1884 1.8378 -4.2660 4.1618 -0.0000 0.0000 -8.3889 0.0280 5.9371 -10.0651 0.0000 -0.0000 -5.3012 -1.4549 -9.5531 2.2522 -1.3590 12.4310 0.4290 -28.1147 5.3713 -7.9415 47.4670 11.1138 -4.1427 30.5617 22.0631 -20.3760 -10.1436 -24.2725 -0.0000 -8.6638 -0.0000 -8.5605 2.5961 0.5488 -0.0000 -0.0000 0.0000 -0.0000 -0.0000 0.0000 0.1266 -10.9236 -22.6965 -47.8929 -5.6038 33.9366 -0.0000 13.1981 0.0000 6.7936 1.4633 -16.5437 -0.0000 0.0000 -0.0000 -0.0000 0.0000 -0.0000
 -25.1661 32.8797 -0.9351 6.7368 -3.3565 -0.8187 -7.0190 32.7988 10.1668 2.1678 0.0000 0.0000 -4.7384 -10.5777 -2.6324 -7.3646 0.0000 0.0000 -4.1787 1.7481 -4.2740 4.1733 -0.0000 0.0000 -8.4168 0.0254 5.9861 -10.0635 0.0000 -0.0000 -5.2944 -1.4462 -9.5446 2.2501 -1.3531 12.4317 0.4608 -28.1626 5.3776 -7.9135 47.5231 11.1034 -4.1220 30.5775 22.0225 -20.3882 -10.2018 -24.3287 -0.0000 -8.6336 -0.0000 -8.5561 2.6036 0.6467 -0.0000 -0.0000 0.0000 -0.0000 -0.0000 0.0000 0.1798 -10.8923 -22.6781 -47.9466 -5.6094 34.0244 -0.0000 13.3291 0.0000 6.7445 1.5086 -16.5598 -0.0000 0.0000 -0.0000 -0.0000 0.0000 -0.0000
 -25.1664 32.8784 -0.9360 6.7332 -3.2749 -0.8159 -7.0264 32.6879 10.1582 2.1989 -0.0000 0.0000 -4.7485 -10.5484 -2.6287 -7.4122 0.0000 0.0000 -4.1491 1.7273 -4.2832 4.1486 -0.0000 0.0000 -8.4209 -0.0338 6.0202 -10.0784 0.0000 -0.0000 -5.2845 -1.4350 -9.5421 2.2580 -1.3433 12.4355 0.5012 -28.1949 5.3693 -8.0121 47.5949 11.1858 -4.1276 30.6192 21.9932 -20.5116 -10.2221 -24.4074 -0.0000 -8.6332 -0.0000 -8.6232 2.5540 0.6048 -0.0000 0.0000 -0.0000 -0.0000 0.0000 -0.0000 0.2055 -10.8775 -22.6526 -48.0212 -5.6284 34.1282 -0.0001 13.5009 0.0000 6.7316 1.5097 -16.5587 -0.0000 0.0000 -0.0000 -0.0000 0.0000 -0.0000
 -25.1634 32.8783 -0.9381 6.7269 -3.2237 -0.8174 -7.0489 32.6434 10.1588 2.2440 -0.0000 -0.0000 -4.7660 -10.5529 -2.6280 -7.4210 0.0000 0.0000 -4.1239 1.6886 -4.2909 4.1088 -0.0000 0.0000 -8.3996 -0.0420 6.0041 -10.1107 0.0000 0.0000 -5.2846 -1.4152 -9.5427 2.2599 -1.3259 12.4409 0.5594 -28.2070 5.3794 -7.9781 47.6446 11.1625 -4.0623 30.6499 21.9643 -20.5853 -10.2530 -24.4677 -0.0000 -8.6470 -0.0000 -8.6338 2.5919 0.5980 -0.0000 -0.0000 0.0000 -0.0000 -0.0000 0.0000 0.2627 -10.8381 -22.6295 -47.9819 -5.5640 34.2222 -0.0001 13.6731 0.0000 6.9108 1.4005 -16.5553 -0.0000 0.0000 -0.0000 -0.0000 0.0000 -0.0000
 -25.1566 32.8782 -0.9389 6.7251 -3.1850 -0.8234 -7.0650 32.6363 10.1589 2.2699 -0.0000 -0.0000 -4.7975 -10.5841 -2.6596 -7.3926 0.0000 -0.0000 -4.1104 1.6541 -4.3008 4.0892 -0.0000 0.0000 -8.3964 -0.0450 6.0038 -10.0684 0.0000 -0.0000 -5.2884 -1.3967 -9.5448 2.2601 -1.3095 12.4426 0.6041 -28.1772 5.3808 -7.9364 47.6881 11.1674 -4.0844 30.6574 21.9676 -20.5759 -10.2834 -24.4799 -0.0000 -8.6953 -0.0000 -8.6231 2.5723 0.5738 -0.0000 -0.0000 0.0000 -0.0000 -0.0000 0.0000 0.2665 -10.7846 -22.6134 -47.8925 -5.4778 34.3105 -0.0001 13.7908 0.0000 7.2795 1.1962 -16.5856 -0.0000 0.0000 -0.0000 -0.0000 0.0000 -0.0000
 -25.1451 32.8772 -0.9399 6.7192 -3.1204 -0.8298 -7.0977 32.5957 10.1585 2.3412 -0.0000 -0.0000 -4.8430 -10.6210 -2.6778 -7.4110 -0.0000 -0.0000 -4.0995 1.6245 -4.3200 4.0928 -0.0000 0.0000 -8.3862 -0.0815 6.0335 -10.1023 0.0000 0.0000 -5.2877 -1.3916 -9.5483 2.2688 -1.3068 12.4484 0.6446 -28.2482 5.3501 -7.8795 47.7209 11.1650 -4.0659 30.6975 21.9305 -20.7639 -10.2738 -24.5279 -0.0000 -8.8039 -0.0000 -8.6896 2.5643 0.6289 -0.0000 0.0000 -0.0000 -0.0000 0.0000 -0.0000 0.3001 -10.7512 -22.5593 -48.6527 -5.6552 34.3723 -0.0001 13.7082 0.0000 8.1194 0.8849 -16.5173 -0.0000 0.0000 -0.0000 -0.0000 0.0000 -0.0000
 -25.1296 32.8780 -0.9410 6.7204 -3.0525 -0.8397 -7.0910 32.5397 10.1280 2.3405 0.0000 -0.0000 -4.8663 -10.6370 -2.6775 -7.4328 0.0000 0.0000 -4.0974 1.6268 -4.3385 4.1076 -0.0000 0.0000 -8.3938 -0.1704 6.0294 -10.0865 0.0000 -0.0000 -5.2947 -1.3921 -9.5407 2.2888 -1.3115 12.4520 0.6705 -28.3028 5.3121 -7.7951 47.7841 11.1366 -4.0403 30.7275 21.8854 -20.9241 -10.2608 -24.5936 -0.0000 -8.8887 -0.0000 -8.7742 2.5378 0.5788 -0.0000 -0.0000 0.0000 -0.0000 -0.0000 0.0000 0.3343 -10.7569 -22.5771 -47.7135 -5.2166 34.4364 -0.0001 14.1757 0.0000 7.3435 1.1745 -16.5786 -0.0000 0.0000 -0.0000 -0.0000 0.0000 -0.0000
 -25.1086 32.8759 -0.9427 6.7166 -2.9725 -0.8486 -7.0610 32.4784 10.0774 2.3142 0.0000 -0.0000 -4.8915 -10.6400 -2.7487 -7.3541 0.0000 0.0000 -4.1093 1.5970 -4.3687 4.1580 -0.0000 -0.0000 -8.4149 -0.2192 6.0101 -10.0715 0.0000 -0.0000 -5.3102 -1.3961 -9.5474 2.3190 -1.3202 12.4639 0.7368 -28.3915 5.3148 -7.6794 47.8357 11.0339 -3.9931 30.7385 21.8479 -20.9393 -10.3360 -24.6526 -0.0000 -8.9372 -0.0000 -8.7827 2.5659 0.5297 -0.0000 0.0000 -0.0000 -0.0000 0.0000 -0.0000 0.4144 -10.7642 -22.4941 -48.7902 -5.5358 34.4733 -0.0001 14.1465 0.0000 7.9970 1.0086 -16.5429 -0.0000 -0.0000 0.0000 -0.0000 -0.0000 0.0000
 -25.0866 32.8763 -0.9427 6.7097 -2.9212 -0.8526 -7.0540 32.4080 10.0395 2.3597 0.0000 0.0000 -4.9442 -10.6248 -2.7807 -7.3513 0.0000 0.0000 -4.1154 1.6146 -4.4055 4.2099 -0.0000 0.0000 -8.4331 -0.2804 5.9763 -10.0339 0.0000 -0.0000 -5.3224 -1.3954 -9.5507 2.3596 -1.3236 12.4600 0.7748 -28.4866 5.2996 -7.5627 47.8817 10.9404 -3.9683 30.7599 21.8191 -20.9547 -10.3981 -24.7226 -0.0000 -8.9566 -0.0000 -8.7508 2.5339 0.5963 -0.0000 0.0000 -0.0000 -0.0000 0.0000 -0.0000 0.4164 -10.7871 -22.5216 -47.9262 -5.1431 34.5446 -0.0001 14.5968 0.0000 7.3804 1.1594 -16.5274 -0.0000 -0.0000 0.0000 -0.0000 -0.0000 0.0000
 -25.0621 32.8754 -0.9428 6.7025 -2.8892 -0.8589 -7.0558 32.4136 10.0057 2.4066 0.0000 -0.0000 -5.0091 -10.6613 -2.7689 -7.4166 0.0000 0.0000 -4.1085 1.6068 -4.4436 4.2141 -0.0000 0.0000 -8.4146 -0.3175 5.9960 -10.0623 0.0000 0.0000 -5.3324 -1.3876 -9.5607 2.3809 -1.3191 12.4613 0.8217 -28.5598 5.2975 -7.3983 47.9123 10.8177 -3.9609 30.7624 21.7811 -20.9800 -10.4513 -24.7719 -0.0000 -8.9847 -0.0000 -8.7966 2.5385 0.5859 -0.0000 -0.0000 0.0000 -0.0000 -0.0000 0.0000 0.3626 -10.7566 -22.4776 -48.6955 -5.3589 34.5798 -0.0001 14.4540 0.0000 8.0398 1.0154 -16.5274 -0.0000 0.0000 -0.0000 -0.0000 0.0000 -0.0000
 -25.0363 32.8747 -0.9431 6.6978 -2.8793 -0.8655 -7.0239 32.3416 9.9531 2.4228 -0.0000 -0.0000 -5.0644 -10.5819 -2.8387 -7.4032 0.0000 0.0000 -4.1154 1.6202 -4.4812 4.2400 -0.0000 0.0000 -8.4097 -0.3389 5.9756 -10.0784 0.0000 -0.0000 -5.3418 -1.3807 -9.5702 2.4128 -1.3152 12.4548 0.8738 -28.6189 5.2979 -7.3472 47.9551 10.7577 -3.8943 30.7857 21.7225 -21.0165 -10.4864 -24.8220 -0.0000 -8.9863 -0.0000 -8.9178 2.5082 0.5605 -0.0000 -0.0000 0.0000 -0.0000 -0.0000 0.0000 0.4410 -10.7675 -22.4604 -48.7633 -5.3320 34.5999 -0.0001 14.5553 0.0000 8.0184 1.0108 -16.5069 -0.0000 0.0000 -0.0000 -0.0000 0.0000 -0.0000
 -25.0060 32.8740 -0.9442 6.6904 -2.9085 -0.8606 -7.0049 32.3046 9.8978 2.4959 0.0000 0.0000 -5.1537 -10.5176 -2.8039 -7.3785 0.0000 0.0000 -4.1196 1.6595 -4.5404 4.2564 -0.0000 0.0000 -8.3965 -0.3581 6.0344 -10.0672 0.0000 0.0000 -5.3511 -1.3694 -9.5704 2.4700 -1.3069 12.4519 0.9330 -28.7089 5.2789 -7.4250 48.0277 10.7184 -3.8575 30.8137 21.6545 -20.9985 -10.5151 -24.8976 -0.0000 -8.9659 -0.0000 -8.8791 2.5030 0.5718 -0.0000 -0.0000 0.0000 -0.0000 -0.0000 0.0000 0.4429 -10.7575 -22.4623 -48.3600 -5.0853 34.6092 -0.0001 14.7115 0.0000 7.9045 1.0381 -16.4765 -0.0000 -0.0000 0.0000 -0.0000 -0.0000 0.0000
 -24.9743 32.8749 -0.9433 6.6901 -2.9644 -0.8517 -6.9534 32.2669 9.8167 2.5098 0.0000 0.0000 -5.1932 -10.4160 -2.7979 -7.3572 0.0000 0.0000 -4.1376 1.6228 -4.6047 4.2630 -0.0000 -0.0000 -8.3718 -0.2593 6.0276 -10.0763 0.0000 0.0000 -5.3703 -1.3507 -9.5785 2.5423 -1.2933 12.4447 1.0119 -28.8145 5.2967 -7.5498 48.1410 10.6753 -3.8041 30.8670 21.5693 -21.0908 -10.4973 -25.0127 -0.0000 -8.9882 -0.0000 -8.8951 2.5538 0.5741 -0.0000 0.0000 -0.0000 -0.0000 0.0000 -0.0000 0.4713 -10.7706 -22.4355 -48.2094 -4.9630 34.6328 -0.0001 14.7955 0.0000 7.7217 1.1462 -16.4575 -0.0000 -0.0000 0.0000 -0.0000 -0.0000 0.0000
